<mxfile host="65bd71144e">
    <diagram id="A1Xwc1pHwm5Tb_ylEUfq" name="Page-1">
        <mxGraphModel dx="297" dy="1609" grid="1" gridSize="10" guides="1" tooltips="1" connect="1" arrows="1" fold="1" page="1" pageScale="1" pageWidth="827" pageHeight="1169" math="0" shadow="0">
            <root>
                <mxCell id="0"/>
                <mxCell id="1" parent="0"/>
                <mxCell id="5NP9PeRhuCpMfetzYFG--1" value="Start" style="ellipse;whiteSpace=wrap;html=1;" parent="1" vertex="1">
                    <mxGeometry x="100" y="20" width="120" height="80" as="geometry"/>
                </mxCell>
                <mxCell id="5NP9PeRhuCpMfetzYFG--2" value="" style="endArrow=classic;html=1;rounded=0;exitX=0.5;exitY=1;exitDx=0;exitDy=0;" parent="1" source="5NP9PeRhuCpMfetzYFG--1" edge="1">
                    <mxGeometry width="50" height="50" relative="1" as="geometry">
                        <mxPoint x="160" y="220" as="sourcePoint"/>
                        <mxPoint x="160" y="150" as="targetPoint"/>
                    </mxGeometry>
                </mxCell>
                <mxCell id="5NP9PeRhuCpMfetzYFG--3" value="Input text" style="shape=parallelogram;perimeter=parallelogramPerimeter;whiteSpace=wrap;html=1;fixedSize=1;" parent="1" vertex="1">
                    <mxGeometry x="100" y="150" width="120" height="60" as="geometry"/>
                </mxCell>
                <mxCell id="5NP9PeRhuCpMfetzYFG--4" value="" style="endArrow=classic;html=1;rounded=0;exitX=0.5;exitY=1;exitDx=0;exitDy=0;" parent="1" source="5NP9PeRhuCpMfetzYFG--3" edge="1">
                    <mxGeometry width="50" height="50" relative="1" as="geometry">
                        <mxPoint x="140" y="310" as="sourcePoint"/>
                        <mxPoint x="160" y="270" as="targetPoint"/>
                    </mxGeometry>
                </mxCell>
                <mxCell id="5NP9PeRhuCpMfetzYFG--5" value="L= length.text-1&lt;br&gt;i = L&lt;br&gt;hasil = &quot;&quot;" style="rounded=0;whiteSpace=wrap;html=1;" parent="1" vertex="1">
                    <mxGeometry x="100" y="270" width="120" height="60" as="geometry"/>
                </mxCell>
                <mxCell id="5NP9PeRhuCpMfetzYFG--6" value="" style="endArrow=classic;html=1;rounded=0;exitX=0.5;exitY=1;exitDx=0;exitDy=0;" parent="1" source="5NP9PeRhuCpMfetzYFG--5" edge="1">
                    <mxGeometry width="50" height="50" relative="1" as="geometry">
                        <mxPoint x="140" y="450" as="sourcePoint"/>
                        <mxPoint x="160" y="390" as="targetPoint"/>
                    </mxGeometry>
                </mxCell>
                <mxCell id="5NP9PeRhuCpMfetzYFG--7" value="i &amp;gt;= 0?" style="rhombus;whiteSpace=wrap;html=1;" parent="1" vertex="1">
                    <mxGeometry x="120" y="505" width="80" height="80" as="geometry"/>
                </mxCell>
                <mxCell id="5NP9PeRhuCpMfetzYFG--8" value="hasil = hasil + text[ i ]&lt;br&gt;i --" style="rounded=0;whiteSpace=wrap;html=1;" parent="1" vertex="1">
                    <mxGeometry x="100" y="390" width="120" height="60" as="geometry"/>
                </mxCell>
                <mxCell id="5NP9PeRhuCpMfetzYFG--9" value="true" style="endArrow=classic;html=1;rounded=0;entryX=0;entryY=0.5;entryDx=0;entryDy=0;exitX=0;exitY=0.5;exitDx=0;exitDy=0;" parent="1" source="5NP9PeRhuCpMfetzYFG--7" target="5NP9PeRhuCpMfetzYFG--8" edge="1">
                    <mxGeometry width="50" height="50" relative="1" as="geometry">
                        <mxPoint x="20" y="460" as="sourcePoint"/>
                        <mxPoint x="70" y="410" as="targetPoint"/>
                        <Array as="points">
                            <mxPoint x="30" y="545"/>
                            <mxPoint x="30" y="420"/>
                        </Array>
                    </mxGeometry>
                </mxCell>
                <mxCell id="5NP9PeRhuCpMfetzYFG--10" value="" style="endArrow=classic;html=1;rounded=0;exitX=0.5;exitY=1;exitDx=0;exitDy=0;entryX=0.5;entryY=0;entryDx=0;entryDy=0;" parent="1" source="5NP9PeRhuCpMfetzYFG--8" target="5NP9PeRhuCpMfetzYFG--7" edge="1">
                    <mxGeometry width="50" height="50" relative="1" as="geometry">
                        <mxPoint x="240" y="450" as="sourcePoint"/>
                        <mxPoint x="290" y="400" as="targetPoint"/>
                    </mxGeometry>
                </mxCell>
                <mxCell id="5NP9PeRhuCpMfetzYFG--11" value="false" style="endArrow=classic;html=1;rounded=0;exitX=0.5;exitY=1;exitDx=0;exitDy=0;entryX=0.5;entryY=0;entryDx=0;entryDy=0;" parent="1" source="5NP9PeRhuCpMfetzYFG--7" edge="1">
                    <mxGeometry width="50" height="50" relative="1" as="geometry">
                        <mxPoint x="240" y="450" as="sourcePoint"/>
                        <mxPoint x="160" y="660" as="targetPoint"/>
                    </mxGeometry>
                </mxCell>
                <mxCell id="5NP9PeRhuCpMfetzYFG--13" value="i = 0&lt;br&gt;j = 0&lt;br&gt;hasil2 = &quot;&quot;&lt;br&gt;reversed = &quot;&quot;" style="rounded=0;whiteSpace=wrap;html=1;" parent="1" vertex="1">
                    <mxGeometry x="100" y="660" width="120" height="60" as="geometry"/>
                </mxCell>
                <mxCell id="5NP9PeRhuCpMfetzYFG--14" value="if hasil [ i ] == &quot; &quot;&amp;nbsp;" style="rhombus;whiteSpace=wrap;html=1;" parent="1" vertex="1">
                    <mxGeometry x="107.5" y="880" width="105" height="100" as="geometry"/>
                </mxCell>
                <mxCell id="5NP9PeRhuCpMfetzYFG--15" value="" style="endArrow=classic;html=1;rounded=0;exitX=0.5;exitY=1;exitDx=0;exitDy=0;" parent="1" source="5NP9PeRhuCpMfetzYFG--13" edge="1">
                    <mxGeometry width="50" height="50" relative="1" as="geometry">
                        <mxPoint x="390" y="770" as="sourcePoint"/>
                        <mxPoint x="160" y="770" as="targetPoint"/>
                    </mxGeometry>
                </mxCell>
                <mxCell id="5NP9PeRhuCpMfetzYFG--16" value="hasil2 = hasil2 + hasil [ i ]&lt;br&gt;i++&lt;br&gt;j++" style="rounded=0;whiteSpace=wrap;html=1;" parent="1" vertex="1">
                    <mxGeometry x="90" y="770" width="140" height="60" as="geometry"/>
                </mxCell>
                <mxCell id="5NP9PeRhuCpMfetzYFG--17" value="" style="endArrow=classic;html=1;rounded=0;exitX=0.5;exitY=1;exitDx=0;exitDy=0;entryX=0.5;entryY=0;entryDx=0;entryDy=0;" parent="1" source="5NP9PeRhuCpMfetzYFG--16" target="5NP9PeRhuCpMfetzYFG--14" edge="1">
                    <mxGeometry width="50" height="50" relative="1" as="geometry">
                        <mxPoint x="70" y="900" as="sourcePoint"/>
                        <mxPoint x="120" y="850" as="targetPoint"/>
                    </mxGeometry>
                </mxCell>
                <mxCell id="5NP9PeRhuCpMfetzYFG--18" value="true" style="endArrow=classic;html=1;rounded=0;entryX=0;entryY=0.5;entryDx=0;entryDy=0;exitX=0;exitY=0.5;exitDx=0;exitDy=0;" parent="1" source="5NP9PeRhuCpMfetzYFG--26" target="5NP9PeRhuCpMfetzYFG--16" edge="1">
                    <mxGeometry width="50" height="50" relative="1" as="geometry">
                        <mxPoint x="40" y="1080" as="sourcePoint"/>
                        <mxPoint x="50" y="970" as="targetPoint"/>
                        <Array as="points">
                            <mxPoint x="40" y="1070"/>
                            <mxPoint x="40" y="800"/>
                        </Array>
                    </mxGeometry>
                </mxCell>
                <mxCell id="5NP9PeRhuCpMfetzYFG--19" value="true" style="endArrow=classic;html=1;rounded=0;exitX=1;exitY=0.5;exitDx=0;exitDy=0;entryX=0;entryY=0.25;entryDx=0;entryDy=0;" parent="1" source="5NP9PeRhuCpMfetzYFG--14" edge="1" target="5NP9PeRhuCpMfetzYFG--20">
                    <mxGeometry width="50" height="50" relative="1" as="geometry">
                        <mxPoint x="320" y="1020" as="sourcePoint"/>
                        <mxPoint x="395" y="930" as="targetPoint"/>
                    </mxGeometry>
                </mxCell>
                <mxCell id="5NP9PeRhuCpMfetzYFG--20" value="a=i&lt;br&gt;reversed = reversed + hasil2 [ a ]&lt;br&gt;a--&lt;br&gt;j--&amp;nbsp;" style="rounded=0;whiteSpace=wrap;html=1;" parent="1" vertex="1">
                    <mxGeometry x="560" y="910" width="180" height="60" as="geometry"/>
                </mxCell>
                <mxCell id="5NP9PeRhuCpMfetzYFG--22" value="" style="endArrow=classic;html=1;rounded=0;exitX=0.5;exitY=1;exitDx=0;exitDy=0;" parent="1" source="5NP9PeRhuCpMfetzYFG--20" edge="1">
                    <mxGeometry width="50" height="50" relative="1" as="geometry">
                        <mxPoint x="495" y="1100" as="sourcePoint"/>
                        <mxPoint x="650" y="1040" as="targetPoint"/>
                    </mxGeometry>
                </mxCell>
                <mxCell id="5NP9PeRhuCpMfetzYFG--23" value="j &amp;gt; 0?" style="rhombus;whiteSpace=wrap;html=1;" parent="1" vertex="1">
                    <mxGeometry x="610" y="1040" width="80" height="80" as="geometry"/>
                </mxCell>
                <mxCell id="5NP9PeRhuCpMfetzYFG--24" value="true" style="endArrow=classic;html=1;rounded=0;exitX=1;exitY=0.5;exitDx=0;exitDy=0;entryX=1;entryY=0.5;entryDx=0;entryDy=0;" parent="1" source="5NP9PeRhuCpMfetzYFG--23" target="5NP9PeRhuCpMfetzYFG--20" edge="1">
                    <mxGeometry width="50" height="50" relative="1" as="geometry">
                        <mxPoint x="765" y="1100" as="sourcePoint"/>
                        <mxPoint x="815" y="1050" as="targetPoint"/>
                        <Array as="points">
                            <mxPoint x="775" y="1080"/>
                            <mxPoint x="775" y="940"/>
                        </Array>
                    </mxGeometry>
                </mxCell>
                <mxCell id="5NP9PeRhuCpMfetzYFG--26" value="i &amp;lt;= L?" style="rhombus;whiteSpace=wrap;html=1;" parent="1" vertex="1">
                    <mxGeometry x="120" y="1030" width="80" height="80" as="geometry"/>
                </mxCell>
                <mxCell id="5NP9PeRhuCpMfetzYFG--27" value="false" style="endArrow=classic;html=1;rounded=0;exitX=0.5;exitY=1;exitDx=0;exitDy=0;entryX=0.5;entryY=0;entryDx=0;entryDy=0;" parent="1" source="5NP9PeRhuCpMfetzYFG--14" target="5NP9PeRhuCpMfetzYFG--26" edge="1">
                    <mxGeometry width="50" height="50" relative="1" as="geometry">
                        <mxPoint x="180" y="1020" as="sourcePoint"/>
                        <mxPoint x="230" y="970" as="targetPoint"/>
                    </mxGeometry>
                </mxCell>
                <mxCell id="5NP9PeRhuCpMfetzYFG--30" value="false" style="endArrow=classic;html=1;rounded=0;exitX=0.5;exitY=1;exitDx=0;exitDy=0;entryX=1;entryY=0.5;entryDx=0;entryDy=0;" parent="1" source="5NP9PeRhuCpMfetzYFG--23" target="5NP9PeRhuCpMfetzYFG--16" edge="1">
                    <mxGeometry width="50" height="50" relative="1" as="geometry">
                        <mxPoint x="440" y="1180" as="sourcePoint"/>
                        <mxPoint x="40" y="1170" as="targetPoint"/>
                        <Array as="points">
                            <mxPoint x="650" y="1240"/>
                            <mxPoint x="800" y="1240"/>
                            <mxPoint x="800" y="800"/>
                        </Array>
                    </mxGeometry>
                </mxCell>
                <mxCell id="5NP9PeRhuCpMfetzYFG--31" value="false" style="endArrow=classic;html=1;rounded=0;exitX=1;exitY=0.5;exitDx=0;exitDy=0;entryX=0;entryY=0.5;entryDx=0;entryDy=0;" parent="1" source="5NP9PeRhuCpMfetzYFG--26" edge="1">
                    <mxGeometry width="50" height="50" relative="1" as="geometry">
                        <mxPoint x="440" y="1000" as="sourcePoint"/>
                        <mxPoint x="270" y="1070" as="targetPoint"/>
                    </mxGeometry>
                </mxCell>
                <mxCell id="5NP9PeRhuCpMfetzYFG--40" style="edgeStyle=orthogonalEdgeStyle;rounded=0;orthogonalLoop=1;jettySize=auto;html=1;entryX=0.5;entryY=0;entryDx=0;entryDy=0;" parent="1" source="5NP9PeRhuCpMfetzYFG--36" target="5NP9PeRhuCpMfetzYFG--39" edge="1">
                    <mxGeometry relative="1" as="geometry"/>
                </mxCell>
                <mxCell id="5NP9PeRhuCpMfetzYFG--36" value="Output&amp;nbsp;&lt;br&gt;reversed" style="shape=parallelogram;perimeter=parallelogramPerimeter;whiteSpace=wrap;html=1;fixedSize=1;" parent="1" vertex="1">
                    <mxGeometry x="290" y="1440" width="120" height="60" as="geometry"/>
                </mxCell>
                <mxCell id="5NP9PeRhuCpMfetzYFG--39" value="End" style="ellipse;whiteSpace=wrap;html=1;" parent="1" vertex="1">
                    <mxGeometry x="290" y="1590" width="120" height="80" as="geometry"/>
                </mxCell>
                <mxCell id="5NP9PeRhuCpMfetzYFG--41" value="&lt;h1&gt;Pseudo code&lt;/h1&gt;&lt;h1&gt;&lt;p style=&quot;font-size: 12px ; font-weight: 400&quot;&gt;1. Input text&lt;/p&gt;&lt;p style=&quot;font-size: 12px ; font-weight: 400&quot;&gt;2. deklarasikan L = length.text&lt;/p&gt;&lt;p style=&quot;font-size: 12px ; font-weight: 400&quot;&gt;&lt;span&gt;&#9;&lt;/span&gt;&lt;span&gt;&#9;&lt;span&gt;&#9;&lt;/span&gt;&lt;span&gt;&#9;&lt;/span&gt;&lt;span&gt;&#9;&lt;/span&gt;&lt;span&gt;&#9;&lt;/span&gt;I&lt;/span&gt;&amp;nbsp;= L&lt;br&gt;&lt;/p&gt;&lt;p style=&quot;font-size: 12px ; font-weight: 400&quot;&gt;&lt;span&gt;&#9;&lt;/span&gt;&lt;span&gt;&#9;&lt;/span&gt;&lt;span&gt;&#9;&lt;/span&gt;&lt;span&gt;&#9;&lt;/span&gt;&lt;span&gt;&#9;&lt;/span&gt;&lt;span&gt;&#9;&lt;/span&gt;hasil = &quot; &quot;&lt;br&gt;&lt;/p&gt;&lt;p style=&quot;font-size: 12px ; font-weight: 400&quot;&gt;3. hasil = hasil + text [ i ] dan i--&lt;/p&gt;&lt;p style=&quot;font-size: 12px ; font-weight: 400&quot;&gt;4. if i &amp;gt;= 0 then repeat step 3&lt;/p&gt;&lt;p style=&quot;font-size: 12px ; font-weight: 400&quot;&gt;&lt;span&gt;6. else&lt;/span&gt;&lt;/p&gt;&lt;p style=&quot;font-size: 12px ; font-weight: 400&quot;&gt;&lt;span&gt;7. deklarasikan i = 0&lt;/span&gt;&lt;/p&gt;&lt;p style=&quot;font-size: 12px ; font-weight: 400&quot;&gt;&lt;span&gt;&lt;span&gt;&#9;&lt;/span&gt;&lt;span&gt;&#9;&lt;/span&gt;&lt;span&gt;&#9;j&lt;/span&gt;&amp;nbsp;= 0&lt;br&gt;&lt;/span&gt;&lt;/p&gt;&lt;p style=&quot;font-size: 12px ; font-weight: 400&quot;&gt;&lt;span&gt;&lt;span&gt;&#9;&lt;/span&gt;&lt;span&gt;&#9;&lt;/span&gt;&lt;span&gt;&#9;&lt;/span&gt;hasil2 = &quot;&quot;&lt;br&gt;&lt;/span&gt;&lt;/p&gt;&lt;p style=&quot;font-size: 12px ; font-weight: 400&quot;&gt;&lt;span&gt;&lt;span&gt;&#9;&lt;/span&gt;&lt;span&gt;&#9;&lt;/span&gt;&lt;span&gt;&#9;&lt;/span&gt;reversed = &quot;&quot;&lt;br&gt;&lt;/span&gt;&lt;/p&gt;&lt;p style=&quot;font-size: 12px ; font-weight: 400&quot;&gt;8. hasil 2 = hasil + hasil [ i ] dan i++, j++&lt;/p&gt;&lt;p style=&quot;font-size: 12px ; font-weight: 400&quot;&gt;9. if hasil [ i ] == &quot; &quot; then&lt;/p&gt;&lt;p style=&quot;font-size: 12px ; font-weight: 400&quot;&gt;&lt;span&gt;&#9;&lt;/span&gt;a. a=i&lt;br&gt;&lt;/p&gt;&lt;p style=&quot;font-size: 12px ; font-weight: 400&quot;&gt;&lt;span&gt;&#9;&lt;/span&gt;b. reversed=reversed + hasil2 [ a ], a--, j--&lt;/p&gt;&lt;p style=&quot;font-size: 12px ; font-weight: 400&quot;&gt;&lt;span&gt;&#9;&lt;/span&gt;c. if j &amp;gt; 0 repeat step a&lt;br&gt;&lt;/p&gt;&lt;p style=&quot;font-size: 12px ; font-weight: 400&quot;&gt;&lt;span&gt;&#9;&lt;/span&gt;d. else repeat step 8&lt;br&gt;&lt;/p&gt;&lt;p style=&quot;font-size: 12px ; font-weight: 400&quot;&gt;&lt;br&gt;&lt;/p&gt;&lt;p style=&quot;font-size: 12px ; font-weight: 400&quot;&gt;10. end if&lt;/p&gt;&lt;p style=&quot;font-size: 12px ; font-weight: 400&quot;&gt;11. if i &amp;lt;= L then repeat step 8&lt;/p&gt;&lt;p style=&quot;font-size: 12px ; font-weight: 400&quot;&gt;12. end if&lt;/p&gt;&lt;p style=&quot;font-size: 12px ; font-weight: 400&quot;&gt;13. reversed = reversed + &quot; &quot;&lt;/p&gt;&lt;p style=&quot;font-size: 12px ; font-weight: 400&quot;&gt;14.&lt;/p&gt;&lt;p style=&quot;font-size: 12px ; font-weight: 400&quot;&gt;&lt;span&gt;a. a=i&lt;/span&gt;&lt;/p&gt;&lt;/h1&gt;&lt;h1&gt;&lt;p style=&quot;font-size: 12px ; font-weight: 400&quot;&gt;&lt;span&gt;&#9;&lt;/span&gt;b. reversed=reversed + hasil2 [ a ], a--, j--&lt;/p&gt;&lt;p style=&quot;font-size: 12px ; font-weight: 400&quot;&gt;&lt;span&gt;&#9;&lt;/span&gt;c. if j &amp;gt; 0 repeat step a&lt;br&gt;&lt;/p&gt;&lt;p style=&quot;font-size: 12px ; font-weight: 400&quot;&gt;&lt;span&gt;&#9;&lt;/span&gt;d. else end if&lt;/p&gt;&lt;/h1&gt;&lt;h1&gt;&lt;p style=&quot;font-size: 12px ; font-weight: 400&quot;&gt;15. Output reversed&amp;nbsp;&lt;/p&gt;&lt;p style=&quot;font-size: 12px ; font-weight: 400&quot;&gt;16. End&lt;/p&gt;&lt;/h1&gt;" style="text;html=1;strokeColor=none;fillColor=none;spacing=5;spacingTop=-20;whiteSpace=wrap;overflow=hidden;rounded=0;" parent="1" vertex="1">
                    <mxGeometry x="396" y="-130" width="295" height="910" as="geometry"/>
                </mxCell>
                <mxCell id="7" style="edgeStyle=none;html=1;entryX=0.5;entryY=0;entryDx=0;entryDy=0;" edge="1" parent="1" source="2" target="3">
                    <mxGeometry relative="1" as="geometry"/>
                </mxCell>
                <mxCell id="2" value="reversed = reversed + &quot; &quot;&lt;br&gt;a=i-1" style="rounded=0;whiteSpace=wrap;html=1;" vertex="1" parent="1">
                    <mxGeometry x="276" y="1040" width="154" height="60" as="geometry"/>
                </mxCell>
                <mxCell id="3" value="reversed = reversed + hasil2 [ a ]&lt;br&gt;j--&lt;br&gt;a--&amp;nbsp;" style="rounded=0;whiteSpace=wrap;html=1;" vertex="1" parent="1">
                    <mxGeometry x="260" y="1160" width="180" height="60" as="geometry"/>
                </mxCell>
                <mxCell id="4" value="" style="endArrow=classic;html=1;rounded=0;exitX=0.5;exitY=1;exitDx=0;exitDy=0;" edge="1" parent="1" source="3">
                    <mxGeometry width="50" height="50" relative="1" as="geometry">
                        <mxPoint x="195" y="1350" as="sourcePoint"/>
                        <mxPoint x="350" y="1290" as="targetPoint"/>
                    </mxGeometry>
                </mxCell>
                <mxCell id="8" value="false" style="edgeStyle=none;html=1;exitX=0.5;exitY=1;exitDx=0;exitDy=0;entryX=0.5;entryY=0;entryDx=0;entryDy=0;" edge="1" parent="1" source="5" target="5NP9PeRhuCpMfetzYFG--36">
                    <mxGeometry relative="1" as="geometry"/>
                </mxCell>
                <mxCell id="5" value="j &amp;gt; 0?" style="rhombus;whiteSpace=wrap;html=1;" vertex="1" parent="1">
                    <mxGeometry x="310" y="1290" width="80" height="80" as="geometry"/>
                </mxCell>
                <mxCell id="6" value="true" style="endArrow=classic;html=1;rounded=0;exitX=1;exitY=0.5;exitDx=0;exitDy=0;entryX=1;entryY=0.5;entryDx=0;entryDy=0;" edge="1" parent="1" source="5" target="3">
                    <mxGeometry width="50" height="50" relative="1" as="geometry">
                        <mxPoint x="465" y="1350" as="sourcePoint"/>
                        <mxPoint x="450" y="1190" as="targetPoint"/>
                        <Array as="points">
                            <mxPoint x="475" y="1330"/>
                            <mxPoint x="475" y="1190"/>
                        </Array>
                    </mxGeometry>
                </mxCell>
            </root>
        </mxGraphModel>
    </diagram>
</mxfile>